<?xml version="1.0" encoding="utf-8"?>
<!-- Generator: Adobe Illustrator 13.0.0, SVG Export Plug-In . SVG Version: 6.00 Build 14948)  -->
<!DOCTYPE svg PUBLIC "-//W3C//DTD SVG 1.1//EN" "http://www.w3.org/Graphics/SVG/1.1/DTD/svg11.dtd" [
	<!ENTITY ns_flows "http://ns.adobe.com/Flows/1.0/">
	<!ENTITY ns_extend "http://ns.adobe.com/Extensibility/1.0/">
	<!ENTITY ns_ai "http://ns.adobe.com/AdobeIllustrator/10.0/">
	<!ENTITY ns_graphs "http://ns.adobe.com/Graphs/1.0/">
	<!ENTITY ns_vars "http://ns.adobe.com/Variables/1.0/">
	<!ENTITY ns_imrep "http://ns.adobe.com/ImageReplacement/1.0/">
	<!ENTITY ns_sfw "http://ns.adobe.com/SaveForWeb/1.0/">
	<!ENTITY ns_custom "http://ns.adobe.com/GenericCustomNamespace/1.0/">
	<!ENTITY ns_adobe_xpath "http://ns.adobe.com/XPath/1.0/">
]>
<svg version="1.1"
	 xmlns:x="&ns_extend;" xmlns:i="&ns_ai;" xmlns:graph="&ns_graphs;" i:viewOrigin="156.5 545.5" i:rulerOrigin="0 0" i:pageBounds="0 792 612 0"
	 xmlns="http://www.w3.org/2000/svg" xmlns:xlink="http://www.w3.org/1999/xlink" xmlns:a="http://ns.adobe.com/AdobeSVGViewerExtensions/3.0/"
	 x="0px" y="0px" width="300px" height="300px" viewBox="0 0 300 300" enable-background="new 0 0 300 300" xml:space="preserve">
<metadata><?xpacket begin="   " id="W5M0MpCehiHzreSzNTczkc9d"?>
<x:xmpmeta xmlns:x="adobe:ns:meta/" x:xmptk="Adobe XMP Core 4.1-c036 46.277092, Fri Feb 23 2007 14:17:08        ">
   <rdf:RDF xmlns:rdf="http://www.w3.org/1999/02/22-rdf-syntax-ns#">
      <rdf:Description rdf:about=""
            xmlns:xap="http://ns.adobe.com/xap/1.0/"
            xmlns:xapGImg="http://ns.adobe.com/xap/1.0/g/img/">
         <xap:Thumbnails>
            <rdf:Alt>
               <rdf:li rdf:parseType="Resource">
                  <xapGImg:width>256</xapGImg:width>
                  <xapGImg:height>200</xapGImg:height>
                  <xapGImg:format>JPEG</xapGImg:format>
                  <xapGImg:image>/9j/4AAQSkZJRgABAgEASABIAAD/7QAsUGhvdG9zaG9wIDMuMAA4QklNA+0AAAAAABAASAAAAAEA&#xA;AQBIAAAAAQAB/+4ADkFkb2JlAGTAAAAAAf/bAIQABgQEBAUEBgUFBgkGBQYJCwgGBggLDAoKCwoK&#xA;DBAMDAwMDAwQDA4PEA8ODBMTFBQTExwbGxscHx8fHx8fHx8fHwEHBwcNDA0YEBAYGhURFRofHx8f&#xA;Hx8fHx8fHx8fHx8fHx8fHx8fHx8fHx8fHx8fHx8fHx8fHx8fHx8fHx8fHx8f/8AAEQgAyAEAAwER&#xA;AAIRAQMRAf/EAaIAAAAHAQEBAQEAAAAAAAAAAAQFAwIGAQAHCAkKCwEAAgIDAQEBAQEAAAAAAAAA&#xA;AQACAwQFBgcICQoLEAACAQMDAgQCBgcDBAIGAnMBAgMRBAAFIRIxQVEGE2EicYEUMpGhBxWxQiPB&#xA;UtHhMxZi8CRygvElQzRTkqKyY3PCNUQnk6OzNhdUZHTD0uIIJoMJChgZhJRFRqS0VtNVKBry4/PE&#xA;1OT0ZXWFlaW1xdXl9WZ2hpamtsbW5vY3R1dnd4eXp7fH1+f3OEhYaHiImKi4yNjo+Ck5SVlpeYmZ&#xA;qbnJ2en5KjpKWmp6ipqqusra6voRAAICAQIDBQUEBQYECAMDbQEAAhEDBCESMUEFURNhIgZxgZEy&#xA;obHwFMHR4SNCFVJicvEzJDRDghaSUyWiY7LCB3PSNeJEgxdUkwgJChgZJjZFGidkdFU38qOzwygp&#xA;0+PzhJSktMTU5PRldYWVpbXF1eX1RlZmdoaWprbG1ub2R1dnd4eXp7fH1+f3OEhYaHiImKi4yNjo&#xA;+DlJWWl5iZmpucnZ6fkqOkpaanqKmqq6ytrq+v/aAAwDAQACEQMRAD8A9U4q7FXYq7FXYq7FXYq7&#xA;FXYqhtS1LT9MsJ9Q1G4jtLG2QyXFzMwSNEHUsx2xV8ofmt/zmFqdzcTaZ+XqC0s0JQ65cRhppe1Y&#xA;YXBWNfAuC3suKvnrXPN/mrX52n1vV7zUpX6m5nklFPABiQB7DFUqjkkjcPGxRx0ZSQR26jFWX+W/&#xA;zh/M/wAtsh0jzLfRRRmq20spuIPf9zN6ke/+rir3DyJ/zmpfRNHa+d9IW4j2U6lpvwSAd2e3c8W/&#xA;2Lr8sVfSnk3z75R856b+kPLepw6hAKeqiErLET+zLE1HQ/6wxVP8VdirsVdirsVdiqjPe2VvLDDP&#xA;cRxS3B4wRu6q0hFNkBNWO46YqrYq7FXYq7FXYq7FXYq7FXYq7FXYq7FXYq7FXYq7FXYq07qil3IV&#xA;FBLMTQADqScVfDH/ADkf+elx561p9C0Wdk8pabIRGVqv1yZTT13HdAR+7B+Z3OyrxPFXYq7FXYq7&#xA;FUy8veZNe8uapFquhX02nahD/d3EDFWoeqt2ZT3Vtjir7D/I3/nKLTvN01v5d82iPTvMclI7S8Qc&#xA;ba8foF3r6UreH2WP2aGi4q9/xV2KuxViP5mfmf5Z/Lzy82sa3KWdyY7GwiI9e5lA+zGD2WtWY7KP&#xA;cgFV8W/mJ/zkj+ZnnG5lRNQk0TSGqsem6c7RDge0sy0klJHWp4+CjFXl0kskrtJK5eRjVnYkkn3J&#xA;xVkHlX8xvPPlS4Wfy/rd3YcSpMKSFoG4moDwvyicezLir6y/I3/nKKy84XVv5b81xx6d5imKx2V3&#xA;FVba7fpxoa+lK3YV4selNlxV7/irsVdirsVdirsVdirsVdirsVdirsVdirsVdirwX/nLX80JPLXk&#xA;+Pyvpsxj1fzErLO6GjRWK7Snb/fx/dj25Yq+JcVdir0DyT+Q/wCaXnK1W+0fRXXTpBWO+u2W2hcV&#xA;pWMyENIPdARiqL81f845fm95btXvLvQnu7OMM0k9g6XXFV3LMkZMgWm9StMVeakEEgihHUYq1irs&#xA;VbBIIINCNwRir7P/AOcW/wA85/NNl/g3zFNz17T4eWnXjn4rq2jABV/GWId/2l36gkqvoTFWndUU&#xA;u5CooJZiaAAdSTir86fzs/Mm68/+fr/VvUY6XAxtdHhOwS1jYhWpU/FJ9tvc06AYqwLFXYq7FV0c&#xA;kkUiyRsUkQhkdSQwYGoII6EYq/Qz8gvzHfz7+XNlqd2/LV7JjY6qdhynhAIkpX/dkbK5/wAokDpi&#xA;r0bFXYq7FXYq7FXYq7FXYq7FXYq7FXYq7FXYq/P3/nJjzE+ufnLrzcmMGmtHp1urGvEWyBZAPAGY&#xA;u304q8txV9Of84yf8482WsWsHnnzfbCewZuWi6VKKpNwNPrE6EfFHyHwIdm6n4aVVfW6IqKEQBUU&#xA;AKoFAAOgAxVvFXjf50/843+WvPkE2qaSkekea93F2g4w3LHfjcoo6n/fgHLx5Yq+JPM3ljXfLGt3&#xA;Oia7ZvZalaNxlhk8OzKwqrIw3VlNDiqVYq7FU18reY9R8teYtO17TXKXumzpcQmtAeB3Rv8AJdaq&#xA;3scVfppo+p2+raRY6pbVFvf28V1CG68JkDrX6GxVJvzLnmg/LnzVPBX14tHv3ip15rayFafTir8z&#xA;8VdirsVdirsVfVP/ADg5e3HLzfZcGa2AsZhJ+yjn11IPu4H/AAuKvqvFXYq7FXYq7FXYq7FXYq7F&#xA;XYq7FXYq7FXYq/L3zLqcmreY9V1SRucl/eXF07/zNNKzk/TyxVln5I/lrN+YPn6y0Z1YaXB/pWry&#xA;qaFbWMjkoaho0jEIvzr2xV+iVtbW9rbRWttGsNvAixQwoAqoiDiqqBsAAKDFVTFXYq7FWDfmv+UP&#xA;lj8x9ENlqcYg1KBWOnarGo9aByNgenOMn7SHr7HfFXwV+YH5d+aPIevyaN5gtjFKPitrlKmC4j7S&#xA;QvQch49wdjQ4qxnFVW2t57m4itreMyzzuscMSirM7niqgeJJxV+nXlLSp9I8q6NpM5DT6fY21rKy&#xA;9C8EKxtT6VxVGanp1tqWm3enXQLWt7DJbzqNiY5VKMAfk2KvzK81+XNQ8s+ZNS0DUF43em3ElvJt&#xA;QNwPwutf2XWjL7HFUpxV2KuxV2Kvt3/nD7yVcaH+XU+uXaGO48x3AniU7f6LADHCaf5TNI3yIxV7&#xA;virsVdirsVdirsVdirsVdirsVdirsVdiqWeabqS08savdxsySW9lcSoyHiwKRMwKkdDtir8vsVfb&#xA;n/OIXkKPQ/y8fzHcRgaj5jkMisQKraQMUiXpUcm5v13BXwxV7xirsVdirsVdiqS+bfJnljzdpEmk&#xA;+YtPiv7J91WQfHG388Ugo6N7qfwxV4NrH/OEflae8eTSfMd5Y2rGq288Ed0V8QHDQbeFR9+Ksm/K&#xA;7/nFfyl5I1+LX7vUJdc1K0PKw9WJYYYX3/eemGkLOP2SW260rSir23FXYq8H/wCckvyAl88QL5m8&#xA;txqPNFpGEuLY0UXsK/ZHIkASp+yT1G3YYq+LNQ06/wBNvZrHULaW0vbdzHPbTo0ciOpoVZWAIOKo&#xA;bFXYq9m/Ij/nHnW/PeowavrUEth5PhYPJOwKPeUNfSgrvxP7UnQdt+ir7qtbW2tLaG1tolhtrdFi&#xA;ghjAVERBxVVUbAACgGKqmKuxV2KuxV2KpF53856N5N8uz6/q/qGzgeGIxwhWld55ViUIrMgY1ep3&#xA;6AnFU9xV2KuxV2KuxV2KuxVJvOiPJ5O12NBV3067VR4kwOBir81PL2jXeua9p2jWilrrUbmK1hA/&#xA;mmcIPurir9OtJ0y00rSrPS7JeFnYQR2tsn8sUKBEH0KoxVFYq7FXYq7FXYq7FXYq7FXYq7FXYqxr&#xA;zh+WnkPzjGE8yaJbagy7LcMpjnUAUos8RSUDfoGpirxfzl/zjX/zjz5Xsv0p5g1e+0ayZuEYa7Q8&#xA;m68Y0MMkrmnZa4qmf5T+Q/8AnFu7vePlZ7TX9ViJdV1GSSWegB3S2uBGjBaE8li27npir3lEVFCI&#xA;AqKAFUCgAHQAYq3irsVdirsVdirsVfKP/OZf5kVu9M8jafJ8VoyanqjDektCLaI7dlYuR7rir6ux&#xA;V2KuxV2KuxV2KuxVbLFFLE8UqLJFIpWSNgGVlYUIIOxBGKvin/nFjyCbr85b24uk5QeU1nZuQqPr&#xA;Jc28QPaoq7j3XFX2xirsVdirsVdirsVdirsVdirsVdirsVUL69tbCxuL67kENpaRPPcSmpCRxqWd&#xA;jSp2UVxV+cf5qfmVrX5g+bbrW9Qdltgxj0yyrVLe3B+FFHTkernu2KsVsr27sbuG8s5ntru3cSQX&#xA;ETFJEdTVWVloQQcVfen/ADjl+bz/AJheT2j1Jl/xHo3CDUiNvWRgfSuKdufEhv8AKB6AgYq9ZxV2&#xA;KuxV2KuxVjn5h+eNK8j+UNQ8yakQYrRP3EFQrTTttFEle7N9wqe2Kvz90Yav+Yn5o2X6QcT6h5i1&#xA;SP625HwgSyjnsK0RErQdgMVfpLirsVdirsVdirsVdirsVeb/AJS+UE0PzJ+Yt6ylLnVPMMkhG1DC&#xA;1vFdRnbxN45/trir0jFXYq7FXYq7FXYq7FXYq7FXYq7FXYqwL8+ru4tPyc82S25KyNYPESOvCYiK&#xA;T/hHOKvzoxV2KvTv+ccvPJ8o/mrpU0snDTtUb9G34LcV4XBCxu3UfBLwb5VxV+g2KuxV2KuxVD6h&#xA;qFjptjPf386Wtlao0txcSsFREUVZmY9AMVfBf/OQf503H5jeZBBYlovK+lsy6ZCagzMdmuZAf2n6&#xA;KP2V9ycVZj/zhn5GbUvOd95tuI62mhwmG0Y03u7oFdqg/Yh51/1hir7LxV2KuxV2KuxV2KuxV2Kq&#xA;cVtDDJNJGvF7hxJMak8nCLGDv0+GNRtiqpirsVdirsVdirsVdirsVdirsVdirsVSTzz5fHmPybre&#xA;g0BbU7G4touWwEkkZWNq/wCS9Dir8yZoZYJnhmUpLExSRG2KspoQfkcVWYq2rMrBlJVlNVYbEEYq&#xA;/Rz8mPPkXnj8utJ1wuGvvTFtqa1qVu4AFlrsPt7SD2YYqzfFXYqlfmXzPoPlnR59Z129jsdOtxWS&#xA;eU9T2VVFWZj2VRU4q+Hvzy/5yE1v8xLp9M0/1NO8owvWCyNBLcFT8MtyVJ+YQHivud8VeRwwyzSp&#xA;DChklkYJHGoJZmY0AAHUk4q/Rn8l/wAv4/In5d6XoZULflPrWqt/NdzgNKOpB4bRgjqFGKs4xV2K&#xA;uxV2KuxV2KuxV2KuxV5z+c/516F+WWkwy3EJ1DWb7l+j9MRwhYL9qWVqNwjB2rSpOw70VfMepf8A&#xA;OYn5uXN36tqNPsIAfhtorcyCg7M0rux+imKsp8o/85s65DNHF5t0KC7tqBXutNLQzCnVzFK0iOT4&#xA;BkGKvoHyJ+dX5b+dwkeh6vH9ff8A6Vlz+4ugfARvTn0/3WWGKs4xV2KuxV2KuxV2KuxV2KuxV8H/&#xA;APOUv5dSeVPzJuNSt4iuj+Yy19auBRVnJ/0mKoAFRIedB+ywxV43irsVekfkn+c+sflpr7TIrXeg&#xA;3xVdV04EVYLUCWInZZUqadm6HsQq+3vKv5tfl35o0xNQ0nXbRkKhpbeeVIZ4jQErJFIVZaVpXp4E&#xA;4qwv8y/+coPy78oRyWum3C+YtaAIW0sXDQI1P923I5Rj5JybsQMVfHn5j/mp5x/MHVfr3mC7LQxs&#xA;xs9Oiqttbhu0cdTvTYsase5xViGKvoz/AJxK/J+TWdcXz5rEBGk6TJ/uIRxQT3qn+9HikHWv89P5&#xA;Tir7IxV2KuxV2KuxV2KuxV2KuxV2KvgT/nKPX59W/OfWo2Zzb6YsFjbI5+yscSs4UVNAZXdvpxV5&#xA;NirsVXI7o6ujFXUhlZTQgjcEEYq94/KP/nK7zT5YeHS/NrS69oI4oLhjyvrda9VkY/vh/kyGvgwx&#xA;V9h+VfN3lzzXo0OseX76O/sJukkZ+JG7pIh+JHHdWFcVTfFXYq7FXYq7FXYq7FWFfm9+WWnfmJ5M&#xA;udDuCkN8v7/S71hX0blQeJNN+DfZceB8aYq/PDX9B1by/rN3o2r27Wuo2MhiuYG6hh4EbEEbgjYj&#xA;FUvxV2KuxV2KuxV6l+Rv5Hax+ZGsiaYPZ+V7Nx+kdQpQuRv6EFftSMOp6KNz2BVfe+j6RpmjaXa6&#xA;Vpdulpp9lGsNrbxiioiCgG+59ydz3xVF4q7FXYq7FXYq7FXYq7FXYq7FXwz/AM5deU7rSPzWm1gx&#xA;cbHX4IriCRRRTLBGsEy9PtfArH/WrirxHFXYq7FXYqyr8vPzL82eQdbTVfL90Y6kC6spKtb3CA/Y&#xA;ljqK+xFGHYjFX3V+UX5z+WPzK0gz2DC01i3UHUNIkYGWLoC6Hb1IqmgcD5gHFXoGKuxV2KuxV2Ku&#xA;xV2KvKfz0/IjSPzI0wXVqY7HzVaJSy1AiiSoN/QuOIJKfyt1U+1QVXwv5o8qeYfKusz6Nr9lJYah&#xA;bmjxSDZhWgdGHwujU2ZSQcVSnFXYqviilmlSKJGklkIVI0BZmY7AADcnFX0N+UH/ADiVr2tyw6t5&#xA;6SXR9HHxppf2b2fwEg/3QnjX4/YfaxV9f6Po+l6LpdtpWlWsdlp1ogjtraFeKIo8B7ncnqTucVRm&#xA;KuxV2KuxV2KuxV2KuxV2KuxV2KsP/NP8stD/ADE8qzaHqY9KZT6unX6islvOBQOo25KejL3HvQhV&#xA;8BfmF+XXmfyF5gl0XX7f05BVrW6SpguIq7SQuQOQ8R1HQgHFWMYq7FXYq7FU08teZtd8s63ba3od&#xA;29lqdo3KGdKd9irKaqysNmVhQjrir7j/ACM/5yD0X8xbVdMvxHp3m2FC01iCRHcKoq0tsWJPuyE8&#xA;l9xvir13FXYq7FXYq7FXYq7FWO+dvy98n+dtOFh5l02K+iSvoSmqzQlhQtFKtHT6DQ964q8M1n/n&#xA;CLyzPcu+j+Zbuwgb7ENzbx3ZU0/nV7aor7fTiqnpX/OD/l+KZG1XzTdXcIPxx21tHasR7M73NPux&#xA;V7J5E/Jr8ufI6q+g6REt8BQ6lcfv7o9QaSvUpWu4TiD4YqzXFXYq7FXYq7FXYq7FXYq7FXYq7FXY&#xA;q7FWndI0Z3YIiAszMaAAbkknFXxH/wA5OfnhZed9Tj8t6EscmgaRMzHUCqs9zcCqFonIJWEDYcT8&#xA;fU7UxV4RirsVdirsVdiqI0/UL7Tb6C/sLiS1vbV1lt7mFikkbqaqysNwQcVfcf8Azjx+flr5+01d&#xA;E1uVIfOFmlXWgRbyJP8Ad0Q6cx/uxB/rDavFV7TirsVdirsVdirsVdirsVdirsVdirsVdirsVdir&#xA;sVdirsVdirsVdirsVdir5B/5yY/5yI/S73XkfylP/uKjYxaxqkTf70spo0ELKf7oH7Tft9B8P2lX&#xA;zTirsVdirsVdirsVdiqM0jV9S0fU7XVNMuHtNQs5FmtriM0ZHU1BH8R3xV+gP5HfnBpv5k+VluTx&#xA;g1+xCxaxZDajkbTR+MclKjwNR2qVXo+KuxV2KuxV2KuxV2KuxV2KuxV2KuxV2KuxV2KuxV2KuxV2&#xA;KuxV2Kvkz/nJH/nJH639a8leSrr/AET4odZ1mFv73s9vbuP919ncfa6D4allXy9irsVdirsVZ/8A&#xA;lX+S3nH8xtQCaXAbbSIn43msTqRBHTcqvT1JKH7C/TQb4q9b/MT/AJwz1KwsFvfJGoPqkkMY+s6b&#xA;ecI5pGVRyaCReKHkang1KfzHFXzbqGn3+m3s9hqFvJaXts5juLadDHJG69VZWAIOKofFXYqzH8pv&#xA;zE1DyB53sNftmY2qsIdTtlO01o5HqoR4inJf8oDFX6P21zBdW8VzbuJYJ0WSGRdwyOOSsPYg4qqY&#xA;q7FXYq7FXYq7FXYq7FXYq7FXYq7FXYq7FXYq7FXYq7FXYq+TP+ckf+ckfrf1ryV5Kuv9E+KHWdZh&#xA;b+97Pb27j/dfZ3H2ug+GpZV8vYq7FXYq7FX0L+Qn/OMV35oEHmXzlHLZ+X6h7TTSDHPeDqGY7GOE&#xA;+PVu1Bvir7F0vS9N0rT4NO0y2is7C1QR29rAoSNFHZVWgGKorFXzT/zmnoHlRfLWla48cUPmeS7F&#xA;vDKvwyz2qxsZVYAfGI24UJ+zWnfFXyDirsVdir9Kvyqt9Ttvyz8q2+pgLfQ6VZpKorUcYVChq78g&#xA;tA3vXFWVYq7FXYq7FXYq7FXYq7FXYq7FXYq7FXYq7FXYq7FXYq4kAEk0A3JPSmKvkb/nIr/nJeTU&#xA;Td+TfJNzx001h1XWoj8U/Z4bdh0i7M4+10Hw/aVfMmKuxV2Kpz5U8n+ZfNmrR6T5e0+XUL6Sn7uM&#xA;fCik05yOaIijuzEDFX2B+Tf/ADit5e8qmDWfNhj1rzAoDx2tOVlbPWoKqw/fOP5mFB2X9rFXveKu&#xA;xV5j+an/ADkF5E8gQzW0twNU8wKD6ej2rBnVu3ryCqwjxr8XgpxV8P8A5hfmF5k8+eY5td16fnM/&#xA;wW9slRDbwg1WKJSTRR95O53xVjOKuxV7D/zjb+T9x5683Ralfwn/AAxosiTXzsPhnlU8o7ZfHkd3&#xA;8F9yMVfeeKuxV2KuxV2KuxV2KuxV2KuxV2KuxV2KuxV2KuxV2KuJABJNANyT0pir5C/5yQ/5yQOr&#xA;G58meTLmmlCsWratEd7k9GggYf7q7Mw+30Hw/aVfNGKuxVfFFJLIsUSNJI5CoigliT0AA64q9/8A&#xA;yp/5xI8z+YPQ1Tzi76Fo7UcWQA+vzL4cTVYAfF6t/k98VfWvk/yP5W8naSuleXNPjsLQUL8BWSRh&#xA;+3LI1Xdvdjiqe4qwD8x/zx/L7yAjRaxfevqnGsek2gEtydqjkKhYwfF2HtXFXyh+ZX/OUv5h+bhN&#xA;ZaZJ/h3RZKr9Ws2P1iRDUUlufhbcHcIFHjXFXjRJJJJqT1OKtYq7FXrn5M/847+aPzBuYtQvFfSf&#xA;KqkNJqMi0ecA7pao32if5z8I9ztir7k8s+WdE8saJa6Jolqlnp1mnCGFPxZj1ZmO7MdycVTTFXYq&#xA;7FXYq7FXYq7FXYq7FXYq7FXYq7FXYq7FXYq7FXyT/wA5Lf8AORaagLnyR5Nuq2QJi1rV4W2mps1t&#xA;Aw6x/wA7j7XQfDXkq+YcVdir0n8rvyD8+fmDJHcWVv8Ao/Qy1JNZu1Kw0HX0V+1Me3w7V6kYq+w/&#xA;yv8AyD8g/l9Gk9lbfpDXAP3ms3gV5gSBUQr9mFf9X4vFjir0jFWEfmF+cv5feQomGvakv1+lY9Kt&#xA;qTXjVoR+7BHAEGoMhUHxxV8sfmV/zlr568yrNYeXF/w3pLgqXhbneyKafanoPT6f7rAI6cjirwyW&#xA;WSWRpZXMkjks7sSWJO5JJ64qsxVUt7e4uJlht4nmmc0SONSzE+AAqTir1Lyb/wA4y/m35mdHbSjo&#xA;tkxHK61StvQEV2hoZj/wGKvov8uf+cSfIXlqSG/1928yapEQ4WdRHZKwoRS3q3Ohr/eMQf5cVe4x&#xA;xxxRrFEoSNAFRFACqoFAAB0AxVdirsVdirsVdirsVdirsVdirsVdirsVdirsVdirsVdir5U/5yX/&#xA;AOcjFdbzyL5OuKg8oNc1eJqdNntoGH3SN/sR3xV8rYqn/k3yJ5r856qul+XNOlv7nYylBSOJSac5&#xA;ZGoiL7k4q+tvyp/5xJ8reXRDqfnBo9f1laOLOh+oQsDX7DAGc/644/5PfFXvscccUaxRKEjQBURQ&#xA;AqqBQAAdAMVeWfmT/wA5Jflx5IlmsGuG1jW4aq+nWNG9Nx+zNMf3ae43Yfy4q+aPzA/5ys/MrzR6&#xA;ttpcq+W9LeoENixNyVqac7ogPWh/3WExV5DFbalqEzNFFNeTuSXZVeVyx3JNKknFWVaL+TH5r60Y&#xA;/wBH+VdRZJSBHNNA1vEamlfVn9NKe9aYq9U8q/8AOFvnq/KS+YtUs9FhNecUQa8uBT/JUxxb+0hx&#xA;V655Z/5xA/KjSjHLqYvNdnX7YupvShJ9o4BG1PYucVer+XfJnlLy1D6OgaPaaYvHgzW0KRuy1r8b&#xA;gc23/mOKpzirsVdirsVdirsVdirsVdirsVdirsVdirsVdirsVdirsVdir5n/AOcl/wDnIldMjuPJ&#xA;Pk67/wByjVi1nVITtbrQhreFh/u0/tsPsdPtfZVfI8EE9xOkMEbzTysFjjQFnZmNAFAqSTir6K/K&#xA;b/nEPXNYEOree3k0fTT8SaTHQXso6j1CQVgU+G79qL1xV9Y+WvKvl3yxpUelaBp8OnWEX2YYVpU/&#xA;zOxqzse7MSTiqa4q7FWNz/ln+XFxIJZ/KmjyyAlg76fas1TuTUx9cVRNt5G8k2pra+X9NgPX91Zw&#xA;Judv2UGKp0iKihEAVFACqBQADoAMVbxV2KuxV2KuxV2KuxV2KuxV2KuxV2KuxV2KuxV2KuxV2Kux&#xA;V2KuxV2KvmD/AJyH/wCcmhZ/WPKXkS7DXnxRarrcRqIuqtDbN/P/ADSD7P7O+4VeJflj+Q/n78w5&#xA;1uLK2NlozN++1q8DLCetfSH2pm/1dq9SMVfY35W/kP5E/LyFJrC3+v65xpLrN0qtNUijCIfZhX2X&#xA;fxJxV6NirsVdirsVdirsVdirsVdirsVdirsVdirsVdirsVdirsVdirsVdirsVdirsVdirsVdirsV&#xA;fPn5t/mR5187X1z+X35TWst5QmDX/MUJ4W8VdmgjuDRF782rU/ZXFV/5Xf8AOI3lXy80Wo+b5U8w&#xA;aqtGW0AIsImB/lajTf7MAf5OKvfoYYYIUhhRYoYlCRxoAqqqigVQNgAMVXYq7FXYq7FXYq7FXYq7&#xA;FXYq7FXYq7FXYq7FXYq7FXYq7FXYq7FXYq7FXYq7FXYq7FXYq7FXYq//2Q==</xapGImg:image>
               </rdf:li>
            </rdf:Alt>
         </xap:Thumbnails>
         <xap:CreatorTool>Adobe Illustrator CS3</xap:CreatorTool>
         <xap:ModifyDate>2008-01-04T01:31:08-08:00</xap:ModifyDate>
         <xap:MetadataDate>2008-01-04T01:31:08-08:00</xap:MetadataDate>
      </rdf:Description>
      <rdf:Description rdf:about=""
            xmlns:xapTPg="http://ns.adobe.com/xap/1.0/t/pg/"
            xmlns:stDim="http://ns.adobe.com/xap/1.0/sType/Dimensions#"
            xmlns:xapG="http://ns.adobe.com/xap/1.0/g/">
         <xapTPg:MaxPageSize rdf:parseType="Resource">
            <stDim:w>612.000000</stDim:w>
            <stDim:h>792.000000</stDim:h>
            <stDim:unit>Points</stDim:unit>
         </xapTPg:MaxPageSize>
         <xapTPg:NPages>1</xapTPg:NPages>
         <xapTPg:HasVisibleTransparency>False</xapTPg:HasVisibleTransparency>
         <xapTPg:HasVisibleOverprint>False</xapTPg:HasVisibleOverprint>
         <xapTPg:PlateNames>
            <rdf:Seq>
               <rdf:li>Cyan</rdf:li>
               <rdf:li>Magenta</rdf:li>
               <rdf:li>Yellow</rdf:li>
               <rdf:li>Black</rdf:li>
            </rdf:Seq>
         </xapTPg:PlateNames>
         <xapTPg:SwatchGroups>
            <rdf:Seq>
               <rdf:li rdf:parseType="Resource">
                  <xapG:groupName>Default Swatch Group</xapG:groupName>
                  <xapG:groupType>0</xapG:groupType>
               </rdf:li>
            </rdf:Seq>
         </xapTPg:SwatchGroups>
      </rdf:Description>
      <rdf:Description rdf:about=""
            xmlns:dc="http://purl.org/dc/elements/1.1/">
         <dc:format>image/svg+xml</dc:format>
      </rdf:Description>
      <rdf:Description rdf:about=""
            xmlns:xapMM="http://ns.adobe.com/xap/1.0/mm/">
         <xapMM:InstanceID>uuid:57B93884A7BADC11828F907C0EB444D3</xapMM:InstanceID>
      </rdf:Description>
   </rdf:RDF>
</x:xmpmeta>
                                                                                                    
                                                                                                    
                                                                                                    
                                                                                                    
                                                                                                    
                                                                                                    
                                                                                                    
                                                                                                    
                                                                                                    
                                                                                                    
                                                                                                    
                                                                                                    
                                                                                                    
                                                                                                    
                                                                                                    
                                                                                                    
                                                                                                    
                                                                                                    
                                                                                                    
                                                                                                    
                           
<?xpacket end="w"?>
	</metadata>
<g id="Layer_1" i:layer="yes" i:dimmedPercent="50" i:rgbTrio="#4F008000FFFF">
	<g>
		<g id="surface0" i:knockout="Off">
			<path fill="none" stroke="#000000" stroke-width="0.1" stroke-miterlimit="10" d="M108.422,50.727
				c10.115-4.038,21.298-1.269,30.866,2.97c10.676,5.017,21.583,12.316,25.963,23.775c1.965,4.676,0.675,10.132-2.701,13.797
				c-2.656,2.269-6.434,1.636-9.617,1.315c-7.225-1.551-11.649-7.978-17.263-12.188c-4.867-4.284-10.048-8.922-16.636-10.107
				c-5.877-0.971-10.982,2.918-14.749,6.952c-5.669,6.993-9.25,15.397-12.042,23.882c-1.814,7.4-5.674,14.461-5.209,22.271
				c-0.552-7.204-2.607-14.216-2.804-21.455c-0.368-9.334,0.816-18.72,3.16-27.745C91.689,64.522,98.333,54.949,108.422,50.727z"/>
			<path d="M108.422,50.727c10.115-4.038,21.298-1.269,30.866,2.97c10.676,5.017,21.583,12.316,25.963,23.775
				c1.965,4.676,0.675,10.132-2.701,13.797c-2.656,2.269-6.434,1.636-9.617,1.315c-7.225-1.551-11.649-7.978-17.263-12.188
				c-4.867-4.284-10.048-8.922-16.636-10.107c-5.877-0.971-10.982,2.918-14.749,6.952c-5.669,6.993-9.25,15.397-12.042,23.882
				c-1.814,7.4-5.674,14.461-5.209,22.271c-0.552-7.204-2.607-14.216-2.804-21.455c-0.368-9.334,0.816-18.72,3.16-27.745
				C91.689,64.522,98.333,54.949,108.422,50.727z"/>
			<path fill="none" stroke="#000000" stroke-width="0.1" stroke-miterlimit="10" d="M200.646,56.913
				c7.324-0.85,15.021,2.023,19.936,7.537c3.334,4.104,5.573,9.274,5.537,14.615c-0.646,6.494-3.914,12.911-9.367,16.643
				c-6.428,4.556-15.215,5.505-22.448,2.347c-10.746-4.083-17.004-17.916-11.481-28.365
				C185.931,62.582,193.096,57.957,200.646,56.913z"/>
			<path d="M200.646,56.913c7.324-0.85,15.021,2.023,19.936,7.537c3.334,4.104,5.573,9.274,5.537,14.615
				c-0.646,6.494-3.914,12.911-9.367,16.643c-6.428,4.556-15.215,5.505-22.448,2.347c-10.746-4.083-17.004-17.916-11.481-28.365
				C185.931,62.582,193.096,57.957,200.646,56.913z"/>
			<path fill="none" stroke="#000000" stroke-width="0.1" stroke-miterlimit="10" d="M276.883,94.662
				c0.433-0.024,0.871-0.035,1.313-0.027c-0.184,3.852,0.82,7.701,0.184,11.538c-1.017,6.596-3.673,12.791-6.55,18.764
				c-6.32,14.098-18.271,25.74-32.761,31.219c-6.652,2.346-14.544,2.166-20.538-1.839c-9.694-6.329-17.318-15.983-20.652-27.126
				c-2.111-6.018-2.184-13.245,1.445-18.699c1.815-2.39,4.266-5.059,7.545-4.88c3.388,0.313,6.416,2.348,8.462,5
				c4.817,6.323,5.825,14.547,9.796,21.298c3.322,4.354,8.694,9.526,14.633,6.979c7.157-3.026,13.18-8.173,19-13.22
				c7.358-6.328,12.479-14.775,16.567-23.473C276.148,98.451,276.721,96.591,276.883,94.662z"/>
			<path d="M276.883,94.662c0.433-0.024,0.871-0.035,1.313-0.027c-0.184,3.852,0.82,7.701,0.184,11.538
				c-1.017,6.596-3.673,12.791-6.55,18.764c-6.32,14.098-18.271,25.74-32.761,31.219c-6.652,2.346-14.544,2.166-20.538-1.839
				c-9.694-6.329-17.318-15.983-20.652-27.126c-2.111-6.018-2.184-13.245,1.445-18.699c1.815-2.39,4.266-5.059,7.545-4.88
				c3.388,0.313,6.416,2.348,8.462,5c4.817,6.323,5.825,14.547,9.796,21.298c3.322,4.354,8.694,9.526,14.633,6.979
				c7.157-3.026,13.18-8.173,19-13.22c7.358-6.328,12.479-14.775,16.567-23.473C276.148,98.451,276.721,96.591,276.883,94.662z"/>
			<path fill="none" stroke="#000000" stroke-width="0.1" stroke-miterlimit="10" d="M98.081,135.092
				c4.257-3.605,10.544-3.255,15.495-1.452c4.974,2.115,10.214,3.749,14.755,6.757c7.051,4.518,13.789,9.584,19.817,15.404
				c6.811,5.506,13.136,11.648,18.556,18.54c4,4.705,8.176,10.202,7.861,16.718c-2.955,9.494-11.09,16.435-19.553,21.081
				c-11.224,5.707-23.743,7.971-35.739,11.473c-5.188,1.675-10.634,2.285-16.029,2.866c-6.109,0.33-12.251,1.59-18.356,0.509
				c3.912-2.843,8.648-4.108,12.948-6.214c12.347-5.33,23.968-12.164,35.998-18.153c5.096-2.467,10.087-5.611,13.001-10.634
				c-0.156-1.104-0.308-2.205-0.455-3.303c-3.425-3.467-7.653-5.945-12.011-8.045c-5.085,4.203-10.947,7.4-15.631,12.092
				c-12.854,9.568-27.063,17.069-40.752,25.346c-18.428,10.357-35.862,22.431-54.64,32.177c-1.094,0.392-2.215,0.697-3.362,0.916
				c7.211-7.857,15.608-14.544,22.708-22.509c10.246-10.732,20.492-21.47,31.182-31.764c11.29-10.871,22.263-22.062,32.726-33.733
				c-4.413-4.08-10.111-7.839-11.452-14.096C93.873,144.336,94.623,138.746,98.081,135.092z"/>
			<path d="M98.081,135.092c4.257-3.605,10.544-3.255,15.495-1.452c4.974,2.115,10.214,3.749,14.755,6.757
				c7.051,4.518,13.789,9.584,19.817,15.404c6.811,5.506,13.136,11.648,18.556,18.54c4,4.705,8.176,10.202,7.861,16.718
				c-2.955,9.494-11.09,16.435-19.553,21.081c-11.224,5.707-23.743,7.971-35.739,11.473c-5.188,1.675-10.634,2.285-16.029,2.866
				c-6.109,0.33-12.251,1.59-18.356,0.509c3.912-2.843,8.648-4.108,12.948-6.214c12.347-5.33,23.968-12.164,35.998-18.153
				c5.096-2.467,10.087-5.611,13.001-10.634c-0.156-1.104-0.308-2.205-0.455-3.303c-3.425-3.467-7.653-5.945-12.011-8.045
				c-5.085,4.203-10.947,7.4-15.631,12.092c-12.854,9.568-27.063,17.069-40.752,25.346c-18.428,10.357-35.862,22.431-54.64,32.177
				c-1.094,0.392-2.215,0.697-3.362,0.916c7.211-7.857,15.608-14.544,22.708-22.509c10.246-10.732,20.492-21.47,31.182-31.764
				c11.29-10.871,22.263-22.062,32.726-33.733c-4.413-4.08-10.111-7.839-11.452-14.096
				C93.873,144.336,94.623,138.746,98.081,135.092z"/>
		</g>
	</g>
</g>
</svg>
